<?xml version="1.0" encoding="UTF-8" standalone="no"?>
<!DOCTYPE svg PUBLIC "-//W3C//DTD SVG 1.1//EN" "http://www.w3.org/Graphics/SVG/1.1/DTD/svg11.dtd">
<svg width="100%" height="100%" viewBox="0 0 100 100" version="1.1" xmlns="http://www.w3.org/2000/svg" xmlns:xlink="http://www.w3.org/1999/xlink" xml:space="preserve" xmlns:serif="http://www.serif.com/" style="fill-rule:evenodd;clip-rule:evenodd;stroke-linejoin:round;stroke-miterlimit:2;">
    <g id="ArtBoard1" transform="matrix(0.95833,0,0,0.977908,37.8875,38.7885)">
        <g transform="matrix(3.18493,0,0,3.79798,-19.0649,-35.4046)">
            <rect x="1.613" y="1.875" width="16.436" height="21.088" style="fill:none;"/>
        </g>
        <g transform="matrix(4.0839,0,0,4.00007,-22.0157,-36.1891)">
            <g>
                <path d="M2,11.999L2,12.001C2,17.486 6.514,22.001 12,22.001C13.018,22.001 14.029,21.845 15,21.54C10.844,20.234 7.998,16.356 7.998,12C7.998,7.644 10.844,3.766 15,2.46C14.029,2.155 13.018,1.999 12,1.999C6.514,1.999 2,6.514 2,11.999Z" style="fill-rule:nonzero;"/>
            </g>
        </g>
    </g>
</svg>
