<?xml version="1.0" encoding="UTF-8" standalone="no"?>
<!DOCTYPE svg PUBLIC "-//W3C//DTD SVG 1.1//EN" "http://www.w3.org/Graphics/SVG/1.1/DTD/svg11.dtd">
<svg width="100%" height="100%" viewBox="0 0 1063 1063" version="1.1" xmlns="http://www.w3.org/2000/svg" xmlns:xlink="http://www.w3.org/1999/xlink" xml:space="preserve" xmlns:serif="http://www.serif.com/" style="fill-rule:evenodd;clip-rule:evenodd;stroke-linecap:round;stroke-linejoin:round;stroke-miterlimit:1.5;">
    <g transform="matrix(3.125,0,0,3.125,0,0)">
        <g transform="matrix(0.996336,0,0,1.08,-16.9688,25.42)">
            <ellipse cx="187.605" cy="156.794" rx="110.405" ry="101.852" style="fill:none;stroke:black;stroke-width:24.38px;"/>
        </g>
        <g transform="matrix(1.04971,0,0,1.02203,-22.7219,31.1349)">
            <ellipse cx="183.991" cy="159.887" rx="28.332" ry="28.538" style="fill:rgb(22,3,3);stroke:black;stroke-width:15.44px;"/>
        </g>
        <g transform="matrix(0.939669,0.926822,-0.745544,0.758207,142.931,-54.8491)">
            <rect x="131.739" y="201.114" width="22.692" height="15.272" style="fill:rgb(19,8,8);stroke:black;stroke-width:13.34px;"/>
        </g>
        <g transform="matrix(1.0352,0,0,1.20781,-22.2406,7.42988)">
            <path d="M308.646,36.277C308.646,35.774 308.17,35.366 307.584,35.366L63.378,35.366C62.792,35.366 62.316,35.774 62.316,36.277C62.316,36.779 62.792,37.187 63.378,37.187L307.584,37.187C308.17,37.187 308.646,36.779 308.646,36.277Z" style="fill:none;stroke:black;stroke-width:20.15px;"/>
        </g>
        <g transform="matrix(0.822309,0,0,1.2866,2.15706,16.8409)">
            <rect x="114.98" y="31.719" width="1.345" height="37.556" style="fill:none;stroke:black;stroke-width:14.82px;"/>
        </g>
        <g transform="matrix(-1.69432,-1.62198,-1.69722,1.78197,359.166,379.328)">
            <rect x="114.98" y="31.719" width="1.345" height="37.556" style="fill:rgb(14,1,1);stroke:black;stroke-width:8.33px;"/>
        </g>
        <g transform="matrix(0.590167,0,0,1.32095,175.459,15.5836)">
            <rect x="114.98" y="31.719" width="1.345" height="37.556" style="fill:none;stroke:black;stroke-width:15.64px;"/>
        </g>
        <g transform="matrix(1.0381,0,0,1.08762,-23.7715,0.182563)">
            <ellipse cx="186.72" cy="178.13" rx="67.431" ry="64.361" style="fill:none;stroke:black;stroke-width:3.14px;"/>
        </g>
    </g>
</svg>
