<?xml version="1.0" encoding="UTF-8" standalone="no"?>
<!DOCTYPE svg PUBLIC "-//W3C//DTD SVG 1.1//EN" "http://www.w3.org/Graphics/SVG/1.1/DTD/svg11.dtd">
<svg width="100%" height="100%" viewBox="0 0 417 417" version="1.1" xmlns="http://www.w3.org/2000/svg" xmlns:xlink="http://www.w3.org/1999/xlink" xml:space="preserve" xmlns:serif="http://www.serif.com/" style="fill-rule:evenodd;clip-rule:evenodd;stroke-linejoin:round;stroke-miterlimit:1.5;">
    <g transform="matrix(4.16667,0,0,4.16667,0,0)">
        <g transform="matrix(6.10452,0,0,8.23557,-2.94091,-28.1219)">
            <path d="M2.004,5.005C2.004,4.801 2.148,4.611 2.384,4.506C2.62,4.401 2.914,4.395 3.157,4.491C5.666,5.477 11.656,7.833 14.919,9.116C15.172,9.216 15.301,9.43 15.232,9.635C15.163,9.841 14.913,9.985 14.627,9.985L2.004,9.985L2.004,5.005Z" style="fill:rgb(15,9,9);stroke:black;stroke-width:0.01px;"/>
        </g>
        <g transform="matrix(6.10452,5.71833e-20,-7.71456e-20,-8.23494,-2.92733,128.823)">
            <path d="M2.004,5.005C2.004,4.801 2.148,4.611 2.384,4.506C2.62,4.401 2.914,4.395 3.157,4.491C5.666,5.477 11.656,7.833 14.919,9.116C15.172,9.215 15.3,9.43 15.231,9.635C15.162,9.841 14.913,9.985 14.627,9.985L2.004,9.985L2.004,5.005Z" style="fill:rgb(15,9,9);stroke:black;stroke-width:0.01px;"/>
        </g>
    </g>
</svg>
