<?xml version="1.0" encoding="UTF-8" standalone="no"?>
<!DOCTYPE svg PUBLIC "-//W3C//DTD SVG 1.1//EN" "http://www.w3.org/Graphics/SVG/1.1/DTD/svg11.dtd">
<svg width="100%" height="100%" viewBox="0 0 1314 2115" version="1.1" xmlns="http://www.w3.org/2000/svg" xmlns:xlink="http://www.w3.org/1999/xlink" xml:space="preserve" xmlns:serif="http://www.serif.com/" style="fill-rule:evenodd;clip-rule:evenodd;stroke-linecap:round;stroke-linejoin:round;stroke-miterlimit:1.5;">
    <g transform="matrix(4.16667,0,0,4.16667,0,0)">
        <g id="ArtBoard1" transform="matrix(0.83938,0,0,1,-54.8926,-2.47356)">
            <rect x="65.397" y="2.474" width="375.512" height="507.591" style="fill:none;"/>
            <g transform="matrix(1.19136,0,0,1,-83.898,0.473558)">
                <path d="M142.502,162.94C146.612,150.3 148.657,136.789 154.832,125.019C161.593,112.131 171.655,96.169 183.07,85.613C194.485,75.057 208.928,66.593 222.471,60.707C235.482,55.052 250.174,51.234 264.329,50.293C279.774,49.267 301.414,50.994 315.993,55.524C329.362,59.678 341.087,68.576 351.8,77.474C362.514,86.371 372.734,96.952 380.272,108.909C387.809,120.866 394.348,134.914 397.024,149.216C399.816,164.137 400.185,184.605 400.185,198.377C400.185,209.515 399.816,221.881 397.024,231.849C394.232,241.817 386.612,249.973 380.272,258.243C372.734,268.073 361.194,282.052 351.8,290.832C343.43,298.655 332.576,303.425 323.909,310.918C314.783,318.808 304.286,329.292 297.046,338.168C290.548,346.134 284.153,356.087 280.466,364.173C277.26,371.205 276.522,379.124 274.923,386.685C273.082,395.394 272.293,407.397 269.418,416.425C266.677,425.034 264.025,434.426 257.675,440.853C250.994,447.616 239.893,454.419 229.329,457.002C218.322,459.694 201.901,459.694 191.632,457.002C182.327,454.563 174.03,448.109 167.714,440.853C160.462,432.522 154.651,418.294 148.12,407.014" style="fill:none;stroke:black;stroke-width:32px;"/>
            </g>
            <g transform="matrix(1.19136,0,0,1,-83.898,0.473558)">
                <path d="M337.813,176.993C337.047,168.873 335.516,152.634 329.637,142.688C323.758,132.741 313.081,122.518 302.536,117.313C291.991,112.107 277.336,110.555 266.368,111.454C255.835,112.318 244.956,116.456 236.728,122.707C228.501,128.957 221.228,141.068 217.002,148.957C215.332,152.075 211.752,166.323 211.375,170.041C210.437,179.288 207.149,197.163 211.375,204.442C215.601,211.722 230.018,208.112 236.728,213.719C243.439,219.325 249.227,228.871 251.639,238.082C254.125,247.569 254.125,261.151 251.639,270.642C249.226,279.859 243.439,289.811 236.728,295.026C230.018,300.242 211.375,301.935 211.375,301.935" style="fill:none;stroke:black;stroke-width:32px;"/>
            </g>
            <g transform="matrix(1.01374,0.479643,-0.653526,0.973167,177.818,-103.814)">
                <rect x="222.339" y="9.522" width="36.127" height="485.726" style="stroke:black;stroke-width:6.67px;"/>
            </g>
        </g>
    </g>
</svg>
