<?xml version="1.0" encoding="UTF-8" standalone="no"?>
<!DOCTYPE svg PUBLIC "-//W3C//DTD SVG 1.1//EN" "http://www.w3.org/Graphics/SVG/1.1/DTD/svg11.dtd">
<svg width="100%" height="100%" viewBox="0 0 1875 1875" version="1.1" xmlns="http://www.w3.org/2000/svg" xmlns:xlink="http://www.w3.org/1999/xlink" xml:space="preserve" xmlns:serif="http://www.serif.com/" style="fill-rule:evenodd;clip-rule:evenodd;stroke-linecap:round;stroke-linejoin:round;stroke-miterlimit:1.5;">
    <g transform="matrix(3.125,0,0,3.125,0,0)">
        <g transform="matrix(1.00644,-1.69992,1.14023,0.83188,-317.273,568.632)">
            <path d="M443.153,330.902C443.153,328.589 441.818,326.711 440.172,326.711L207.589,326.711C205.943,326.711 204.608,328.589 204.608,330.902L204.608,339.286C204.608,341.599 205.943,343.478 207.589,343.478L440.172,343.478C441.818,343.478 443.153,341.599 443.153,339.286L443.153,330.902Z" style="fill:none;stroke:black;stroke-width:38.27px;"/>
        </g>
        <g transform="matrix(0.844143,0.826843,-0.902905,1.13796,205.225,-237.418)">
            <path d="M443.153,330.902C443.153,328.589 440.857,326.711 438.028,326.711L209.733,326.711C206.904,326.711 204.608,328.589 204.608,330.902L204.608,339.286C204.608,341.599 206.904,343.478 209.733,343.478L438.028,343.478C440.857,343.478 443.153,341.599 443.153,339.286L443.153,330.902Z" style="fill:none;stroke:black;stroke-width:45.09px;"/>
        </g>
    </g>
</svg>
