<?xml version="1.0" encoding="UTF-8" standalone="no"?>
<!DOCTYPE svg PUBLIC "-//W3C//DTD SVG 1.1//EN" "http://www.w3.org/Graphics/SVG/1.1/DTD/svg11.dtd">
<svg width="100%" height="100%" viewBox="0 0 100 100" version="1.1" xmlns="http://www.w3.org/2000/svg" xmlns:xlink="http://www.w3.org/1999/xlink" xml:space="preserve" xmlns:serif="http://www.serif.com/" style="fill-rule:evenodd;clip-rule:evenodd;stroke-linejoin:round;stroke-miterlimit:2;">
    <g transform="matrix(0.999202,0,0,0.999202,-0.0506841,0.295622)">
        <g transform="matrix(1.19402,0,0,1.07507,-6.89731,-2.81384)">
            <path d="M81.106,25.278L63.191,20.808L63.191,49.528L81.106,49.528L81.106,25.278Z" style="fill:rgb(15,3,3);"/>
        </g>
        <g transform="matrix(1.03328,0,0,1.08683,-5.07865,-3.15724)">
            <rect x="14.731" y="43.051" width="7.058" height="27.045" style="fill:rgb(15,3,3);"/>
        </g>
        <g transform="matrix(1.17072,0,0,1.07507,-6.33708,-1.86481)">
            <rect x="24.119" y="43.837" width="7.643" height="32.163" style="fill:rgb(15,3,3);"/>
        </g>
        <g transform="matrix(0.696529,0.229971,-0.32049,0.746163,20.0736,11.5509)">
            <rect x="14.644" y="43.006" width="20.592" height="14.85" style="fill:rgb(15,3,3);"/>
        </g>
        <g transform="matrix(1.61288,0,0,0.966284,-40.896,1.84861)">
            <rect x="31.756" y="43.314" width="49.413" height="16.895" style="fill:rgb(15,3,3);"/>
        </g>
        <g transform="matrix(1.16072,0,0,1.09224,-4.75966,-3.81364)">
            <rect x="64.189" y="58.227" width="6.14" height="12.078" style="fill:rgb(15,3,3);"/>
        </g>
        <g transform="matrix(1.35208,0,0,1.07507,-19.7274,-2.81384)">
            <rect x="74.569" y="58.321" width="6.603" height="18.546" style="fill:rgb(15,3,3);"/>
        </g>
    </g>
</svg>
