<?xml version="1.0" encoding="UTF-8" standalone="no"?>
<!DOCTYPE svg PUBLIC "-//W3C//DTD SVG 1.1//EN" "http://www.w3.org/Graphics/SVG/1.1/DTD/svg11.dtd">
<svg width="100%" height="100%" viewBox="0 0 417 417" version="1.1" xmlns="http://www.w3.org/2000/svg" xmlns:xlink="http://www.w3.org/1999/xlink" xml:space="preserve" xmlns:serif="http://www.serif.com/" style="fill-rule:evenodd;clip-rule:evenodd;stroke-linejoin:round;stroke-miterlimit:2;">
    <g transform="matrix(4.16667,0,0,4.16667,0,0)">
        <g id="Sitting" transform="matrix(1,0,0,1,-247.64,-370.945)">
            <g transform="matrix(-8.97715e-19,-0.204354,-0.20762,-9.50701e-19,290.888,380.327)">
                <path d="M-40.834,-40.834C-63.385,-40.834 -81.667,-22.552 -81.667,-0.001C-81.667,22.551 -63.385,40.834 -40.834,40.834C-18.282,40.834 -0.001,22.551 -0.001,-0.001C-0.001,-22.552 -18.282,-40.834 -40.834,-40.834" style="fill-rule:nonzero;"/>
            </g>
            <g transform="matrix(0.216633,0,0,0.198168,292.795,422.405)">
                <path d="M0,93.5C-21.142,93.5 -38.532,77.433 -40.623,56.842L-47.731,-62.846C-48.019,-64.8 -48.167,-66.799 -48.167,-68.833C-48.167,-91.384 -29.885,-109.666 -7.333,-109.666C13.167,-109.666 30.139,-94.558 33.056,-74.869L38.417,30.918L121.166,35.666C122.177,35.666 123.171,35.741 124.142,35.886C132.774,37.174 139.604,43.978 140.931,52.597L164.83,178.687C165.159,180.127 165.333,181.626 165.333,183.166C165.333,194.211 156.378,203.166 145.333,203.166C135.739,203.166 127.72,196.408 125.78,187.396L101.917,93.418L0,93.5Z" style="fill-rule:nonzero;"/>
            </g>
        </g>
        <g transform="matrix(0.216633,0,0,0.198168,59.7596,47.3309)">
            <g id="Chair">
                <path d="M0,138.001C10.078,138.001 18.25,146.172 18.25,156.25C18.25,166.329 10.078,174.5 0,174.5L-88.495,174.345C-91.202,174.667 -93.956,173.833 -96.749,173.833C-130.175,173.833 -159.062,150.124 -165.512,118.606C-166.433,114.104 -188.228,-17.507 -188.228,-17.507C-188.243,-17.808 -188.25,-18.111 -188.25,-18.416C-188.25,-28.495 -180.079,-36.666 -170,-36.666C-161.224,-36.666 -153.895,-30.471 -152.147,-22.216L-132.782,97.633C-127.217,120.653 -106.481,137.752 -81.75,137.752L0,138.001Z" style="fill-rule:nonzero;"/>
            </g>
        </g>
    </g>
</svg>
