<?xml version="1.0" encoding="UTF-8" standalone="no"?>
<!DOCTYPE svg PUBLIC "-//W3C//DTD SVG 1.1//EN" "http://www.w3.org/Graphics/SVG/1.1/DTD/svg11.dtd">
<svg width="100%" height="100%" viewBox="0 0 44 44" version="1.1" xmlns="http://www.w3.org/2000/svg" xmlns:xlink="http://www.w3.org/1999/xlink" xml:space="preserve" xmlns:serif="http://www.serif.com/" style="fill-rule:evenodd;clip-rule:evenodd;stroke-linecap:round;stroke-linejoin:round;stroke-miterlimit:1.5;">
    <g transform="matrix(1.80742,0,0,1.69028,-19.7624,-17.3371)">
        <path d="M34.453,18.272C34.453,14.331 31.461,11.131 27.775,11.131L18.44,11.131C14.754,11.131 11.761,14.331 11.761,18.272L11.761,28.271C11.761,32.212 14.754,35.412 18.44,35.412L27.775,35.412C31.461,35.412 34.453,32.212 34.453,28.271L34.453,18.272Z" style="fill:none;stroke:black;stroke-width:1.67px;"/>
    </g>
    <g transform="matrix(1.36614,0,0,1.2767,-9.64526,-7.69084)">
        <path d="M34.453,18.205C34.453,14.301 31.491,11.131 27.842,11.131L18.372,11.131C14.724,11.131 11.761,14.301 11.761,18.205L11.761,28.338C11.761,32.242 14.724,35.412 18.372,35.412L27.842,35.412C31.491,35.412 34.453,32.242 34.453,28.338L34.453,18.205Z" style="fill:none;stroke:black;stroke-width:2.21px;"/>
    </g>
    <g transform="matrix(0.925447,0,0,0.864864,0.583606,1.82702)">
        <path d="M34.453,18.235C34.453,14.314 31.478,11.131 27.814,11.131L18.4,11.131C14.736,11.131 11.761,14.314 11.761,18.235L11.761,28.308C11.761,32.229 14.736,35.412 18.4,35.412L27.814,35.412C31.478,35.412 34.453,32.229 34.453,28.308L34.453,18.235Z" style="fill:none;stroke:black;stroke-width:3.26px;"/>
    </g>
</svg>
