<?xml version="1.0" encoding="UTF-8" standalone="no"?>
<!DOCTYPE svg PUBLIC "-//W3C//DTD SVG 1.1//EN" "http://www.w3.org/Graphics/SVG/1.1/DTD/svg11.dtd">
<svg width="100%" height="100%" viewBox="0 0 100 100" version="1.1" xmlns="http://www.w3.org/2000/svg" xmlns:xlink="http://www.w3.org/1999/xlink" xml:space="preserve" xmlns:serif="http://www.serif.com/" style="fill-rule:evenodd;clip-rule:evenodd;stroke-linejoin:round;stroke-miterlimit:2;">
    <g id="ArtBoard1" transform="matrix(0.95833,0,0,0.977908,37.8875,38.7885)">
        <g transform="matrix(3.96633,0,0,3.88314,-36.5358,-32.9355)">
            <rect x="0.639" y="0.216" width="23.012" height="22.483" style="fill:none;"/>
        </g>
        <g transform="matrix(3.80581,0,0,3.81695,-33.5771,-32.171)">
            <g transform="matrix(1.1608,0,0,1.10925,-2.24554,-1.57611)">
                <path d="M12.441,6.21C15.424,6.21 17.846,8.7 17.846,11.768C17.846,14.835 15.424,17.326 12.441,17.326C9.457,17.326 7.035,14.835 7.035,11.768C7.035,8.7 9.457,6.21 12.441,6.21ZM12.441,7.672C14.639,7.672 16.424,9.507 16.424,11.768C16.424,14.028 14.639,15.863 12.441,15.863C10.243,15.863 8.458,14.028 8.458,11.768C8.458,9.507 10.243,7.672 12.441,7.672Z"/>
            </g>
            <g transform="matrix(1.04348,0,0,1.02259,-0.361482,-0.291682)">
                <rect x="10.982" y="0.496" width="2.097" height="3.026"/>
            </g>
            <g transform="matrix(1.04348,0,0,1.02259,-0.292815,19.0804)">
                <rect x="10.982" y="0.496" width="2.097" height="3.026"/>
            </g>
            <g transform="matrix(0.00615943,1.02257,-1.04346,0.00603612,24.0547,-0.862785)">
                <rect x="10.982" y="0.496" width="2.097" height="3.026"/>
            </g>
            <g transform="matrix(0.00615943,1.02257,-1.04346,0.00603612,4.26451,-0.893781)">
                <rect x="10.982" y="0.496" width="2.097" height="3.026"/>
            </g>
            <g transform="matrix(-0.75925,0.701486,-0.715817,-0.74405,15.3409,-2.61701)">
                <rect x="10.982" y="0.496" width="2.097" height="3.026"/>
            </g>
            <g transform="matrix(-0.75925,0.701486,-0.715817,-0.74405,29.9383,11.6037)">
                <rect x="10.982" y="0.496" width="2.097" height="3.026"/>
            </g>
            <g transform="matrix(0.73481,0.726051,-0.740884,0.720099,12.0979,-5.89586)">
                <rect x="10.982" y="0.496" width="2.097" height="3.026"/>
            </g>
            <g transform="matrix(0.73481,0.726051,-0.740884,0.720099,-2.49906,8.42995)">
                <rect x="10.982" y="0.496" width="2.097" height="3.026"/>
            </g>
        </g>
    </g>
</svg>
